<svg version="1.0" xmlns="http://www.w3.org/2000/svg"
  width="105.000000pt" height="108.000000pt" viewBox="0 0 105.000000 108.000000"
  preserveAspectRatio="xMidYMid meet">

  <g transform="translate(0.000000,108.000000) scale(0.100000,-0.100000)"
  fill="#ffffff" stroke="none">
    <path d="M430 1054 c-170 -36 -308 -158 -366 -323 -46 -130 -27 -310 45 -423
    67 -106 176 -194 287 -233 76 -27 232 -25 309 5 116 45 237 145 270 224 21 49
    34 116 24 116 -5 0 -9 -6 -9 -12 0 -19 -60 -121 -67 -114 -3 3 -1 11 4 18 17
    23 45 172 41 223 -3 46 -4 48 -12 20 -15 -54 -69 -165 -80 -165 -6 0 -22 -16
    -35 -35 -58 -86 -184 -148 -298 -147 -224 1 -401 222 -354 441 25 118 98 223
    184 265 172 84 363 34 486 -129 l22 -30 -18 34 c-26 48 -106 116 -171 146 -31
    14 -65 30 -76 36 -39 22 -210 7 -268 -23 -10 -5 -18 -6 -18 -4 0 12 78 44 130
    55 91 19 178 16 239 -8 98 -39 186 -114 235 -201 33 -57 33 -48 1 21 -33 72
    -133 171 -206 203 -52 23 -190 57 -221 55 -7 0 -42 -7 -78 -15z"/>
  </g>  
</svg>
